<svg width="69" height="71" viewBox="0 0 69 71" fill="none" xmlns="http://www.w3.org/2000/svg">
<path d="M68.2033 0.861524C67.8148 0.464161 67.324 0.189042 66.7887 0.0685142C66.2533 -0.0520135 65.6955 -0.0129394 65.181 0.181143L1.85754 23.8466C1.31143 24.0595 0.841259 24.4381 0.509476 24.9321C0.177693 25.4261 0 26.0122 0 26.6125C0 27.2128 0.177693 27.7988 0.509476 28.2929C0.841259 28.7869 1.31143 29.1655 1.85754 29.3784L29.4896 40.7378L40.5424 69.1363C40.7501 69.6729 41.106 70.1353 41.5664 70.4665C42.0267 70.7977 42.5713 70.9831 43.1329 71C43.7146 70.9877 44.279 70.7946 44.7517 70.4461C45.2245 70.0975 45.5833 69.61 45.781 69.0476L68.8077 3.96762C69.0038 3.44424 69.0511 2.87436 68.9441 2.32441C68.8371 1.77447 68.5801 1.26712 68.2033 0.861524V0.861524ZM43.1329 59.7589L35.1024 39.0516L48.8896 24.882L44.8312 20.7109L30.9288 34.9989L10.8955 26.6273L61.3528 7.902L43.1329 59.7589Z" fill="#0D5C63"/>
</svg>
